# xmcd
#
# Track frame offsets: 
#        150
#        21605
#        34955
#        50862
#        65780
#        74705
#        88205
#        100430
#        111980
#        125482
#        136282
#        151057
#        168157
#        192005
#        202057
#        214432
#
# Disc length: 3038 seconds
#
# Revision: 0
# Processed by: cddbd v1.5.1PL0 Copyright (c) Steve Scherf et al.
# Submitted via: ExactAudioCopy v0.95a5
#
DISCID=050bdc10
DTITLE=G.G.Kettel - Road Songs
DYEAR=1999
DGENRE=Country
TTITLE0=On the Road again (Boogie Version)
TTITLE1=Call me the breeze
TTITLE2=Don't think twice
TTITLE3=Driftin'
TTITLE4=Big Road Blues
TTITLE5=San Francisco Bay Blues
TTITLE6=King of the road
TTITLE7=I ain't got no home
TTITLE8=Far, far away
TTITLE9=The letter
TTITLE10=Take it easy
TTITLE11=No woman, no cry
TTITLE12=Norwegian roads
TTITLE13=On the road again (Country Version)
TTITLE14=I've been everywhere
TTITLE15=It will take some time
EXTD=
EXTT0=
EXTT1=
EXTT2=
EXTT3=
EXTT4=
EXTT5=
EXTT6=
EXTT7=
EXTT8=
EXTT9=
EXTT10=
EXTT11=
EXTT12=
EXTT13=
EXTT14=
EXTT15=
PLAYORDER=
